<svg width="216" height="57" viewBox="0 0 216 57" fill="none" xmlns="http://www.w3.org/2000/svg">
<g clip-path="url(#clip0_20570_16288)">
<path d="M102.726 13.9458C100.961 12.1456 98.8331 10.7342 96.4023 9.7505C93.9724 8.76858 91.2771 8.27054 88.3914 8.27054C85.4728 8.27054 82.761 8.76858 80.3315 9.7505C77.9007 10.7337 75.781 12.1456 74.0314 13.9471C72.283 15.7464 70.8997 17.8907 69.9196 20.3199C68.9384 22.7494 68.4411 25.4475 68.4411 28.3389C68.4411 31.2647 68.9387 33.9792 69.9196 36.407C70.8989 38.8348 72.2824 40.9796 74.0314 42.7806C75.7817 44.5826 77.9014 45.9944 80.3317 46.9772C82.7596 47.9587 85.4713 48.4563 88.3914 48.4563C91.2785 48.4563 93.9737 47.9587 96.4025 46.9772C97.6632 46.4673 98.8428 45.8414 99.9327 45.1063L101.998 47.1732L102.006 47.1811C102.561 47.7004 103.177 47.9636 103.839 47.9636C104.501 47.9636 105.118 47.7004 105.689 47.1643C106.209 46.6053 106.464 45.9931 106.445 45.3442C106.425 44.7073 106.174 44.1049 105.68 43.5361L103.766 41.6289C105.045 40.0879 106.084 38.3372 106.864 36.407C107.845 33.9761 108.342 31.2616 108.342 28.3389C108.342 25.4506 107.845 22.7525 106.864 20.3199C105.882 17.8889 104.49 15.7446 102.726 13.9458ZM95.1849 33.08C94.6602 32.5558 94.0491 32.29 93.3686 32.29C92.6867 32.29 92.0752 32.5558 91.5513 33.0804C91.0277 33.6045 90.7623 34.2163 90.7623 34.8987C90.7623 35.5821 91.0279 36.1942 91.5513 36.7171L96.2256 41.3958C95.6204 41.7655 94.9839 42.0937 94.3184 42.379C92.5299 43.1464 90.5357 43.5357 88.3914 43.5357C86.2465 43.5357 84.2525 43.1464 82.4645 42.379C80.6742 41.6116 79.1033 40.5337 77.7955 39.1758C76.4849 37.8166 75.4476 36.1943 74.7125 34.3538C73.9768 32.5134 73.6038 30.4894 73.6038 28.3389C73.6038 26.1884 73.9768 24.1737 74.7123 22.3505C75.4474 20.5255 76.4851 18.9018 77.7971 17.5254C79.1044 16.1529 80.6742 15.0759 82.462 14.3244C84.2523 13.5729 86.2474 13.1916 88.3914 13.1916C90.5348 13.1916 92.5299 13.5729 94.3206 14.3244C96.1087 15.0763 97.6873 16.1538 99.0125 17.5267C100.339 18.9027 101.375 20.5251 102.094 22.3483C102.814 24.1746 103.18 26.1902 103.18 28.3389C103.18 30.488 102.814 32.5125 102.094 34.356C101.58 35.6714 100.903 36.8754 100.075 37.9515L95.1849 33.08Z" fill="#00DBEE"/>
<path d="M131.726 9.89241C129.792 8.78222 127.539 8.2196 125.028 8.2196H115.173C114.426 8.2196 113.79 8.47703 113.283 8.98524C112.775 9.49301 112.518 10.1299 112.518 10.8779V45.7017C112.518 46.4497 112.775 47.0866 113.283 47.5944C113.79 48.1021 114.426 48.3595 115.173 48.3595C115.956 48.3595 116.601 48.1004 117.093 47.5895C117.581 47.0822 117.828 46.4466 117.828 45.7017V33.9543H125.028C127.539 33.9543 129.791 33.409 131.722 32.3333C133.657 31.2549 135.185 29.7343 136.263 27.8134C137.338 25.8955 137.883 23.6826 137.883 21.2354C137.883 18.6908 137.338 16.4195 136.263 14.4858C135.186 12.5485 133.66 11.003 131.726 9.89241ZM132.77 21.2354C132.77 22.714 132.436 24.0515 131.779 25.2104C131.123 26.3675 130.205 27.2866 129.049 27.9429C127.891 28.6011 126.538 28.935 125.028 28.935H117.828V13.2398H125.028C126.536 13.2398 127.888 13.5808 129.046 14.2536C130.202 14.9272 131.121 15.8711 131.777 17.0587C132.436 18.2524 132.77 19.6577 132.77 21.2354Z" fill="#00DBEE"/>
<path d="M174.947 13.9458C173.181 12.1456 171.054 10.7342 168.623 9.7505C166.193 8.76858 163.498 8.27054 160.612 8.27054C157.694 8.27054 154.982 8.76858 152.552 9.7505C150.121 10.7342 148.002 12.146 146.252 13.9471C144.504 15.746 143.121 17.8903 142.14 20.3199C141.159 22.7494 140.662 25.4475 140.662 28.3389C140.662 31.2647 141.159 33.9792 142.14 36.407C143.12 38.8353 144.503 40.98 146.252 42.7806C148.002 44.5826 150.122 45.9944 152.553 46.9772C154.981 47.9587 157.692 48.4563 160.612 48.4563C163.5 48.4563 166.195 47.9587 168.623 46.9772C171.053 45.994 173.181 44.5826 174.947 42.782C176.711 40.9813 178.103 38.8366 179.085 36.407C180.066 33.9756 180.563 31.2612 180.563 28.3389C180.563 25.4511 180.066 22.753 179.085 20.3199C178.103 17.8889 176.71 15.7446 174.947 13.9458ZM175.401 28.3389C175.401 30.488 175.035 32.5125 174.315 34.356C173.596 36.1947 172.56 37.8157 171.235 39.1745C169.909 40.5333 168.33 41.6112 166.539 42.379C164.751 43.1464 162.757 43.5357 160.612 43.5357C158.468 43.5357 156.474 43.1464 154.685 42.379C152.895 41.6116 151.324 40.5337 150.017 39.1758C148.706 37.8166 147.669 36.1943 146.934 34.3538C146.198 32.5134 145.825 30.4894 145.825 28.3389C145.825 26.1884 146.198 24.1737 146.933 22.3505C147.668 20.5255 148.706 18.9018 150.018 17.5254C151.325 16.1529 152.895 15.0759 154.683 14.3244C156.473 13.5729 158.468 13.1916 160.612 13.1916C162.756 13.1916 164.751 13.5729 166.541 14.3244C168.33 15.0763 169.908 16.1538 171.233 17.5267C172.559 18.9027 173.596 20.5251 174.315 22.3483C175.036 24.1746 175.401 26.1902 175.401 28.3389Z" fill="#00DBEE"/>
<path d="M215.26 8.83678C214.767 8.34582 214.14 8.0968 213.394 8.0968C212.65 8.0968 212.016 8.34449 211.508 8.83279C210.997 9.32552 210.739 9.97218 210.739 10.7551V38.4712L189.061 9.04771C188.502 8.41522 187.803 8.0941 186.983 8.0941C186.236 8.0941 185.608 8.34312 185.117 8.83452C184.626 9.32637 184.377 9.97169 184.377 10.7524V45.7985C184.377 46.5442 184.625 47.1794 185.113 47.6863C185.603 48.1971 186.233 48.4563 186.983 48.4563C187.765 48.4563 188.411 48.1976 188.903 47.6863C189.391 47.178 189.638 46.5429 189.638 45.7985V18.3034L211.349 47.5306C211.583 47.8442 211.897 48.0812 212.282 48.2347C212.65 48.3816 213.023 48.4563 213.394 48.4563C214.143 48.4563 214.772 48.1976 215.265 47.6863C215.753 47.1789 216 46.5438 216 45.7985V10.7551C216 9.97483 215.751 9.32995 215.26 8.83678Z" fill="#00DBEE"/>
<path d="M60.9195 4.65526L49.1974 52.3402C48.7198 54.2895 47.1155 55.9557 45.2515 56.6519C44.7322 56.8469 44.1942 56.9629 43.6564 56.9954C43.6518 56.9908 43.6471 56.9908 43.6425 56.9954C43.5637 57 43.4802 57 43.4014 57H15.404V56.9954L22.5772 27.8247L23.0456 25.9217L24.0378 21.8745L24.942 18.1986L26.3841 12.3366L26.602 11.4501L28.2713 4.65526C28.9019 2.08395 31.4986 0 34.072 0H57.4093C59.9828 0 61.5547 2.08395 60.9195 4.65526Z" fill="url(#paint0_linear_20570_16288)"/>
<path opacity="0.25" d="M38.6486 46.5941L44.4633 22.9333C44.607 22.3484 44.4785 21.7273 44.1164 21.2462C41.781 18.1425 40.2602 16.1244 37.9031 12.9963C37.5908 12.5819 37.101 12.3366 36.5824 12.3366H26.3841L24.942 18.1986L24.0378 21.8745C24.9096 20.6446 26.2264 19.6884 27.636 19.2893C27.9514 19.1965 28.2713 19.1362 28.5912 19.1036C28.7906 19.0851 28.9854 19.0758 29.1708 19.0851C31.939 19.1269 33.5527 21.5357 32.5697 24.3855C31.7906 26.6411 29.5233 28.4605 27.2187 28.688C27.075 28.7019 26.9405 28.7112 26.806 28.7112C25.6051 28.7297 24.6128 28.3167 23.9405 27.6158C23.4907 27.161 23.1846 26.5808 23.0456 25.9218L22.5772 27.8247L15.404 56.9954V57H42.5946C42.5899 57 42.5853 56.9954 42.5806 56.9954C42.5806 56.9954 43.0258 56.9908 43.6425 56.9954C43.6471 56.9908 43.6518 56.9908 43.6564 56.9954C44.1942 56.9629 44.7322 56.8469 45.2515 56.6519C38.3797 55.1759 37.8232 50.1726 38.6486 46.5941Z" fill="url(#paint1_linear_20570_16288)" style="mix-blend-mode:multiply"/>
<path d="M42.5668 56.9861C33.0426 56.6009 33.8263 48.5853 34.4198 45.7077L40.1472 22.4019C40.3462 21.5923 40.1706 20.7355 39.6694 20.0694C37.1693 16.7462 34.7245 13.5025 33.6911 12.1318C33.3668 11.7017 32.8607 11.4501 32.3223 11.4501H20.6797C20.1461 11.4501 19.6286 11.6323 19.2124 11.9665L8.84064 20.2975C8.17443 20.8327 7.70283 21.5725 7.49873 22.4028L0.139444 52.3402C-0.491163 54.9114 1.07604 56.9954 3.64953 56.9954H42.6919C42.6502 56.9954 42.6085 56.9908 42.5668 56.9861ZM22.9899 27.8015C22.8462 27.8154 22.7117 27.8247 22.5772 27.8247C19.7023 27.8711 18.0052 25.4252 19.0068 22.515C19.7858 20.264 22.0579 18.44 24.3624 18.2172C24.5618 18.1986 24.7565 18.1893 24.942 18.1986C26.0642 18.2172 26.9962 18.621 27.636 19.2893C28.5912 20.2686 28.9251 21.8049 28.3408 23.4989C27.6685 25.4437 25.8926 27.0635 23.9405 27.6159C23.6252 27.7087 23.3098 27.769 22.9899 27.8015Z" fill="url(#paint2_linear_20570_16288)"/>
</g>
<defs>
<linearGradient id="paint0_linear_20570_16288" x1="38.2322" y1="-21.4913" x2="38.2322" y2="89.6029" gradientUnits="userSpaceOnUse">
<stop stop-color="#A6FE5A"/>
<stop offset="0.365155" stop-color="#00DBEE"/>
<stop offset="0.758701" stop-color="#2749F2"/>
</linearGradient>
<linearGradient id="paint1_linear_20570_16288" x1="30.3277" y1="17.3787" x2="30.3277" y2="54.3394" gradientUnits="userSpaceOnUse">
<stop stop-color="white"/>
<stop offset="1" stop-color="#231F20"/>
</linearGradient>
<linearGradient id="paint2_linear_20570_16288" x1="21.346" y1="57.5606" x2="21.346" y2="21.4435" gradientUnits="userSpaceOnUse">
<stop stop-color="#5200BC"/>
<stop offset="1" stop-color="#FF5A00"/>
</linearGradient>
<clipPath id="clip0_20570_16288">
<rect width="216" height="57" fill="white"/>
</clipPath>
</defs>
</svg>
